{"glyphs":{":":{"x_min":0,"x_max":300,"ha":300,"o":"m 83 465 b 83 429 114 398 150 398 b 189 398 217 425 217 465 b 217 501 185 532 150 532 b 108 532 83 506 83 465 z m 83 55 b 83 19 114 -12 150 -12 b 189 -12 217 15 217 55 b 217 91 185 122 150 122 b 108 122 83 96 83 55 z"},"$":{"x_min":0,"x_max":600,"ha":600,"o":"m 66 82 b 110 46 180 22 259 17 l 251 -95 l 339 -95 l 330 20 b 437 34 514 99 514 206 b 514 293 468 351 324 404 b 204 448 184 474 184 522 b 184 573 234 608 315 608 b 376 608 434 588 476 564 l 508 639 b 460 662 411 677 352 681 l 361 795 l 273 795 l 281 681 b 164 670 98 601 98 517 b 98 425 144 377 277 326 b 400 279 424 248 424 195 b 424 133 369 93 281 93 b 207 93 154 119 110 156 z"},"?":{"x_min":0,"x_max":491,"ha":491,"o":"m 110 595 b 146 642 189 670 244 670 b 305 670 344 629 344 582 b 344 465 156 451 156 281 b 156 258 159 229 166 207 l 244 207 l 244 263 b 244 415 441 419 441 589 b 441 679 363 752 252 752 b 160 752 98 712 45 647 z m 143 55 b 143 19 174 -12 210 -12 b 249 -12 277 15 277 55 b 277 91 245 122 210 122 b 168 122 143 96 143 55 z"},"<":{"x_min":0,"x_max":600,"ha":600,"o":"m 218 343 l 477 502 l 433 572 l 113 371 l 113 314 l 432 114 l 477 185 z"},"'":{"x_min":0,"x_max":150,"ha":150,"o":"m 32 700 l 40 478 l 111 478 l 119 700 z"},"=":{"x_min":0,"x_max":600,"ha":600,"o":"m 497 395 l 497 474 l 103 474 l 103 395 z m 497 213 l 497 292 l 103 292 l 103 213 z"},"a":{"x_min":0,"x_max":617,"ha":617,"o":"m 45 257 b 45 93 149 -12 279 -12 b 360 -12 411 30 442 73 b 455 22 493 -5 558 -5 l 577 65 b 548 65 518 75 518 126 l 518 520 l 436 520 l 436 478 b 400 508 351 532 291 532 b 146 532 45 412 45 257 z m 299 68 b 206 68 137 147 137 260 b 137 376 204 454 300 454 b 348 454 392 437 428 412 l 428 133 b 397 95 349 68 299 68 z"},"L":{"x_min":0,"x_max":511,"ha":511,"o":"m 506 85 l 185 85 l 185 700 l 90 700 l 90 0 l 506 0 z"},"3":{"x_min":0,"x_max":600,"ha":600,"o":"m 259 -12 b 420 -12 496 90 496 195 b 496 278 446 342 362 374 b 434 409 475 460 475 539 b 475 631 399 712 268 712 b 184 712 121 680 81 653 l 118 582 b 149 607 198 632 261 632 b 330 632 384 589 384 527 b 384 463 328 401 210 401 l 158 401 l 158 328 l 214 328 b 345 328 403 265 403 192 b 403 122 348 70 260 70 b 189 70 142 95 105 123 l 64 48 b 109 15 172 -12 259 -12 z"},";":{"x_min":0,"x_max":300,"ha":300,"o":"m 117 90 b 99 1 68 -64 15 -132 l 64 -160 b 139 -113 191 -37 205 65 z m 86 465 b 86 429 117 398 153 398 b 192 398 220 425 220 465 b 220 501 188 532 153 532 b 111 532 86 506 86 465 z"},"J":{"x_min":0,"x_max":430,"ha":430,"o":"m 255 221 b 255 111 215 70 151 70 b 112 70 73 91 46 119 l 0 46 b 36 11 93 -12 154 -12 b 271 -12 350 61 350 231 l 350 700 l 255 700 z"},"V":{"x_min":0,"x_max":640,"ha":640,"o":"m 267 0 l 374 0 l 630 675 l 544 708 l 323 104 l 103 711 l 10 675 z"},"\"":{"x_min":0,"x_max":300,"ha":300,"o":"m 26 700 l 34 477 l 105 477 l 113 700 z m 187 700 l 195 477 l 266 477 l 274 700 z"},"7":{"x_min":0,"x_max":600,"ha":600,"o":"m 296 0 b 296 310 354 450 537 628 l 537 700 l 93 700 l 93 618 l 430 618 b 278 464 195 306 195 0 z"},"S":{"x_min":0,"x_max":568,"ha":568,"o":"m 30 59 b 84 16 167 -12 264 -12 b 412 -12 518 63 518 193 b 518 288 467 351 311 409 b 181 457 159 485 159 537 b 159 592 213 630 301 630 b 367 630 431 609 476 583 l 511 664 b 448 695 385 712 303 712 b 150 712 65 631 65 532 b 65 431 115 379 260 324 b 394 273 420 239 420 182 b 420 114 360 71 264 71 b 184 71 126 99 78 139 z"},"}":{"x_min":0,"x_max":300,"ha":300,"o":"m 224 320 b 140 300 110 263 110 114 b 110 -8 82 -43 7 -61 l 7 -118 b 136 -106 197 -47 197 118 b 197 241 217 278 293 288 l 293 352 b 217 362 197 399 197 522 b 197 687 136 746 7 758 l 7 701 b 82 683 110 648 110 526 b 110 377 140 340 224 320 z"},"Z":{"x_min":0,"x_max":575,"ha":575,"o":"m 40 0 l 535 0 l 535 84 l 149 84 l 521 628 l 521 700 l 57 700 l 57 618 l 412 618 l 40 74 z"},"x":{"x_min":0,"x_max":500,"ha":500,"o":"m 10 49 l 74 -7 l 247 208 l 422 -9 l 490 49 l 300 268 l 473 470 l 406 527 l 248 323 l 87 531 l 17 470 l 195 264 z"},")":{"x_min":0,"x_max":300,"ha":300,"o":"m 148 320 b 148 158 108 22 58 -93 l 111 -123 b 194 24 243 165 243 320 b 243 486 193 623 111 763 l 58 733 b 108 621 148 482 148 320 z"},"&":{"x_min":0,"x_max":737,"ha":737,"o":"m 470 147 b 432 99 381 70 324 70 b 243 70 185 122 185 191 b 185 253 214 295 273 336 z m 237 545 b 237 599 276 640 329 640 b 382 640 417 601 417 553 b 417 498 385 459 302 416 b 257 460 237 500 237 545 z m 228 384 b 129 329 90 262 90 178 b 90 63 191 -12 310 -12 b 409 -12 471 30 525 92 l 631 -8 l 687 52 l 569 160 b 615 229 590 339 673 339 l 651 410 b 523 410 553 288 511 212 l 346 369 b 452 421 500 477 500 562 b 500 644 438 712 331 712 b 222 712 154 639 154 544 b 154 481 178 438 228 384 z"},"_":{"x_min":0,"x_max":600,"ha":600,"o":"m 0 -115 l 600 -115 l 600 -55 l 0 -55 z"},"v":{"x_min":0,"x_max":533,"ha":533,"o":"m 219 0 l 313 0 l 523 496 l 446 530 l 269 102 l 92 530 l 10 496 z"},"O":{"x_min":0,"x_max":761,"ha":761,"o":"m 50 351 b 50 151 173 -12 380 -12 b 587 -12 711 151 711 351 b 711 550 586 712 380 712 b 173 712 50 556 50 351 z m 147 351 b 147 509 233 630 380 630 b 527 630 614 494 614 351 b 614 191 534 70 380 70 b 233 70 147 206 147 351 z"},"(":{"x_min":0,"x_max":300,"ha":300,"o":"m 152 320 b 152 482 192 621 242 733 l 189 763 b 107 623 57 486 57 320 b 57 165 106 24 189 -123 l 242 -93 b 192 22 152 158 152 320 z"},"C":{"x_min":0,"x_max":594,"ha":594,"o":"m 147 351 b 147 527 241 629 370 629 b 428 629 469 616 510 596 l 539 676 b 491 699 438 712 371 712 b 176 712 50 561 50 347 b 50 126 176 -12 359 -12 b 443 -12 505 8 554 35 l 525 114 b 480 88 435 71 370 71 b 240 71 147 183 147 351 z"},"W":{"x_min":0,"x_max":943,"ha":943,"o":"m 205 0 l 323 0 l 473 526 l 621 0 l 739 0 l 928 677 l 840 704 l 683 101 l 535 627 l 416 627 l 267 101 l 109 707 l 15 677 z"},"A":{"x_min":0,"x_max":668,"ha":668,"o":"m 91 -8 l 169 190 l 493 190 l 571 -10 l 658 25 l 388 700 l 284 700 l 10 25 z m 331 606 l 462 270 l 199 270 z"},"f":{"x_min":0,"x_max":348,"ha":348,"o":"m 398 719 b 361 738 322 752 267 752 b 162 752 90 679 90 562 l 90 501 l 10 501 l 10 423 l 90 423 l 90 0 l 180 0 l 180 423 l 334 423 l 334 501 l 180 501 l 180 568 b 180 636 217 672 273 672 b 312 672 343 658 371 643 z"},"Q":{"x_min":0,"x_max":761,"ha":761,"o":"m 50 351 b 50 151 171 -12 375 -12 b 460 -12 526 19 576 60 l 673 -12 l 716 67 l 627 116 b 667 172 701 247 701 351 b 701 550 578 712 375 712 b 171 712 50 557 50 351 z m 505 105 b 473 85 428 70 373 70 b 229 70 147 206 147 351 b 147 510 231 630 375 630 b 519 630 604 494 604 351 b 604 273 591 213 559 161 l 469 226 l 429 153 z"},"w":{"x_min":0,"x_max":818,"ha":818,"o":"m 580 102 l 461 483 l 364 483 l 242 102 l 108 525 l 25 496 l 189 0 l 288 0 l 409 387 l 529 0 l 628 0 l 793 496 l 713 525 z"},"-":{"x_min":0,"x_max":600,"ha":600,"o":"m 470 302 l 470 384 l 130 384 l 130 302 z"},"E":{"x_min":0,"x_max":555,"ha":555,"o":"m 90 0 l 510 0 l 510 82 l 185 82 l 185 325 l 465 325 l 465 405 l 185 405 l 185 618 l 510 618 l 510 700 l 90 700 z"},"s":{"x_min":0,"x_max":468,"ha":468,"o":"m 35 42 b 76 10 141 -12 220 -12 b 346 -12 428 46 428 139 b 428 219 383 268 251 312 b 170 339 148 358 148 390 b 148 423 185 457 254 457 b 310 457 356 442 392 421 l 417 495 b 376 516 325 532 258 532 b 134 532 60 469 60 389 b 60 308 108 267 206 234 b 312 198 336 173 336 132 b 336 93 297 66 223 66 b 163 66 107 87 73 117 z"},">":{"x_min":0,"x_max":600,"ha":600,"o":"m 123 502 l 382 343 l 123 185 l 168 114 l 487 314 l 487 371 l 167 572 z"},"l":{"x_min":0,"x_max":346,"ha":346,"o":"m 165 740 l 75 740 l 75 163 b 75 38 146 -12 238 -12 b 281 -12 317 -3 341 8 l 319 81 b 301 73 275 66 250 66 b 197 66 165 100 165 172 z"},"8":{"x_min":0,"x_max":600,"ha":600,"o":"m 203 377 b 101 333 56 270 56 183 b 56 74 152 -12 305 -12 b 442 -12 544 68 544 189 b 544 276 490 336 392 378 b 461 413 506 460 506 541 b 506 637 420 712 297 712 b 182 712 93 641 93 540 b 93 464 132 416 203 377 z m 452 187 b 452 117 391 68 306 68 b 215 68 148 124 148 199 b 148 270 216 320 292 338 b 392 302 452 251 452 187 z m 180 542 b 180 599 229 638 297 638 b 366 638 419 593 419 532 b 419 473 368 431 310 411 b 231 435 180 484 180 542 z"},"\\":{"x_min":0,"x_max":450,"ha":450,"o":"m 403 -46 l 121 773 l 47 748 l 329 -71 z"},"e":{"x_min":0,"x_max":544,"ha":544,"o":"m 501 223 b 503 245 504 267 504 291 b 504 423 429 532 280 532 b 140 532 45 416 45 260 b 45 88 139 -12 288 -12 b 362 -12 422 3 470 25 l 449 102 b 405 82 359 68 299 68 b 207 68 149 126 137 223 z m 278 454 b 367 454 421 397 421 296 l 136 296 b 146 399 200 454 278 454 z"},"b":{"x_min":0,"x_max":594,"ha":594,"o":"m 80 0 l 164 0 l 164 43 b 198 13 254 -12 314 -12 b 432 -12 549 99 549 265 b 549 434 440 532 320 532 b 249 532 197 496 170 466 l 170 740 l 80 740 z m 457 262 b 457 145 387 68 290 68 b 243 68 201 84 170 108 l 170 386 b 194 419 243 454 300 454 b 386 454 457 382 457 262 z"},"%":{"x_min":0,"x_max":900,"ha":900,"o":"m 259 -40 l 696 702 l 636 740 l 199 -2 z m 380 490 b 380 628 319 707 209 707 b 99 707 38 628 38 490 b 38 351 97 270 208 270 b 319 270 380 352 380 490 z m 297 490 b 297 376 265 337 209 337 b 153 337 121 390 121 490 b 121 602 154 641 208 641 b 265 641 297 589 297 490 z m 862 214 b 862 352 801 431 691 431 b 581 431 520 352 520 214 b 520 75 579 -6 690 -6 b 801 -6 862 76 862 214 z m 779 214 b 779 100 747 61 691 61 b 635 61 603 114 603 214 b 603 326 636 365 690 365 b 747 365 779 313 779 214 z"},"m":{"x_min":0,"x_max":915,"ha":915,"o":"m 167 520 l 80 520 l 80 0 l 170 0 l 170 344 b 208 403 262 453 321 453 b 379 453 415 404 415 332 l 415 0 l 505 0 l 505 341 b 543 401 596 453 656 453 b 714 453 750 404 750 332 l 750 0 l 840 0 l 840 339 b 840 453 785 532 672 532 b 588 532 534 483 493 422 b 471 489 418 532 336 532 b 262 532 204 489 167 433 z"},"#":{"x_min":0,"x_max":750,"ha":750,"o":"m 220 0 l 242 124 l 438 124 l 416 0 l 496 0 l 518 124 l 610 124 l 622 197 l 531 197 l 574 447 l 667 447 l 679 520 l 587 520 l 609 644 l 529 644 l 507 520 l 311 520 l 333 644 l 253 644 l 231 520 l 139 520 l 127 447 l 218 447 l 175 197 l 83 197 l 71 124 l 162 124 l 140 0 z m 298 447 l 494 447 l 451 197 l 255 197 z"},",":{"x_min":0,"x_max":300,"ha":300,"o":"m 132 90 b 114 1 83 -64 30 -132 l 79 -160 b 154 -113 206 -37 220 65 z"},"n":{"x_min":0,"x_max":592,"ha":592,"o":"m 167 520 l 80 520 l 80 0 l 170 0 l 170 344 b 208 403 265 453 327 453 b 390 453 427 404 427 329 l 427 0 l 517 0 l 517 339 b 517 455 459 532 342 532 b 262 532 204 489 167 433 z"},"h":{"x_min":0,"x_max":592,"ha":592,"o":"m 170 740 l 80 740 l 80 0 l 170 0 l 170 344 b 208 403 266 453 328 453 b 391 453 427 404 427 329 l 427 0 l 517 0 l 517 339 b 517 455 459 532 342 532 b 264 532 207 491 170 437 z"},"z":{"x_min":0,"x_max":472,"ha":472,"o":"m 41 442 l 322 442 l 35 71 l 35 0 l 437 0 l 437 80 l 146 80 l 432 451 l 432 520 l 41 520 z"},"B":{"x_min":0,"x_max":630,"ha":630,"o":"m 90 2 b 133 -4 211 -8 292 -8 b 483 -8 585 73 585 200 b 585 283 537 339 447 371 b 522 404 562 454 562 528 b 562 639 467 708 296 708 b 206 708 137 703 90 698 z m 299 71 b 259 71 220 73 185 77 l 185 324 l 299 324 b 420 324 488 276 488 196 b 488 115 418 71 299 71 z m 185 398 l 185 626 b 216 629 251 631 295 631 b 401 631 467 591 467 516 b 467 446 400 398 295 398 z"},"K":{"x_min":0,"x_max":601,"ha":601,"o":"m 274 360 l 547 644 l 483 703 l 185 381 l 185 700 l 90 700 l 90 0 l 185 0 l 185 322 l 525 -12 l 591 56 z"},"R":{"x_min":0,"x_max":617,"ha":617,"o":"m 587 30 l 511 194 b 470 282 437 314 383 338 b 492 367 552 425 552 522 b 552 631 465 708 295 708 b 221 708 161 705 90 698 l 90 0 l 185 0 l 185 309 l 200 309 b 304 309 367 273 411 178 l 498 -12 z m 295 628 b 399 628 457 579 457 513 b 457 433 391 389 295 389 l 185 389 l 185 624 b 214 626 250 628 295 628 z"},"T":{"x_min":0,"x_max":545,"ha":545,"o":"m 10 616 l 225 616 l 225 0 l 320 0 l 320 616 l 535 616 l 535 700 l 10 700 z"},"P":{"x_min":0,"x_max":581,"ha":581,"o":"m 90 0 l 185 0 l 185 264 b 209 262 235 261 263 261 b 437 261 556 345 556 495 b 556 619 457 708 283 708 b 212 708 145 704 90 698 z m 275 340 b 237 340 206 342 185 345 l 185 624 b 213 627 245 628 281 628 b 397 628 462 573 462 487 b 462 397 394 340 275 340 z"},"|":{"x_min":0,"x_max":300,"ha":300,"o":"m 189 -100 l 189 770 l 111 770 l 111 -100 z"},"t":{"x_min":0,"x_max":397,"ha":397,"o":"m 102 501 l 10 501 l 10 423 l 100 423 l 100 179 b 100 56 162 -12 262 -12 b 311 -12 360 7 387 23 l 362 95 b 336 80 306 68 273 68 b 227 68 190 94 190 172 l 190 423 l 334 423 l 334 501 l 190 501 l 190 665 l 121 665 z"},"M":{"x_min":0,"x_max":834,"ha":834,"o":"m 649 0 l 744 0 l 744 700 l 608 700 l 417 257 l 223 700 l 90 700 l 90 0 l 180 0 l 180 579 l 368 158 l 462 158 l 649 579 z"},"g":{"x_min":0,"x_max":585,"ha":585,"o":"m 286 532 b 153 532 45 418 45 262 b 45 95 158 0 276 0 b 345 0 396 35 423 67 l 423 3 b 423 -107 365 -154 271 -154 b 210 -154 169 -135 137 -110 l 104 -188 b 149 -217 209 -232 271 -232 b 414 -232 510 -160 510 12 l 510 520 l 428 520 l 428 480 b 393 509 345 532 286 532 z m 296 80 b 212 80 137 153 137 267 b 137 386 213 454 295 454 b 350 454 390 433 420 412 l 420 140 b 393 108 349 80 296 80 z"},"j":{"x_min":0,"x_max":259,"ha":259,"o":"m 91 -48 b 91 -117 62 -154 6 -154 b -19 -154 -46 -145 -63 -134 l -85 -209 b -58 -224 -24 -232 17 -232 b 108 -232 181 -179 181 -57 l 181 520 l 91 520 z m 136 609 b 175 609 199 634 199 672 b 199 706 171 735 136 735 b 97 735 73 710 73 672 b 73 638 101 609 136 609 z"},"i":{"x_min":0,"x_max":250,"ha":250,"o":"m 170 520 l 80 520 l 80 0 l 170 0 z m 125 609 b 164 609 188 634 188 672 b 188 706 160 735 125 735 b 86 735 62 710 62 672 b 62 638 90 609 125 609 z"},"y":{"x_min":0,"x_max":523,"ha":523,"o":"m 93 -232 b 193 -232 263 -186 322 -26 l 513 496 l 430 528 l 279 99 l 85 532 l 5 496 l 208 39 l 256 39 l 233 -21 b 193 -126 151 -154 95 -154 b 65 -154 41 -146 25 -137 l 5 -212 b 22 -223 53 -232 93 -232 z"},"@":{"x_min":0,"x_max":1050,"ha":1050,"o":"m 746 -12 b 880 -12 977 124 977 316 b 977 540 809 712 558 712 b 263 712 72 478 72 212 b 72 -75 258 -232 514 -232 b 626 -232 729 -203 798 -166 l 769 -90 b 698 -125 621 -152 520 -152 b 317 -152 164 -17 164 215 b 164 420 303 632 552 632 b 747 632 885 496 885 311 b 885 159 824 52 754 52 b 717 52 702 75 702 113 b 702 122 703 133 705 148 l 746 475 l 667 475 l 658 408 b 630 451 581 482 512 482 b 384 482 282 366 282 214 b 282 79 370 0 471 0 b 538 0 591 38 628 83 b 636 25 679 -12 746 -12 z m 498 74 b 426 74 368 126 368 227 b 368 336 441 412 522 412 b 576 412 621 382 647 340 l 623 142 b 597 109 550 74 498 74 z"},".":{"x_min":0,"x_max":300,"ha":300,"o":"m 83 55 b 83 19 114 -12 150 -12 b 189 -12 217 15 217 55 b 217 91 185 122 150 122 b 108 122 83 96 83 55 z"},"p":{"x_min":0,"x_max":613,"ha":613,"o":"m 40 450 b 75 450 99 432 99 387 l 99 -220 l 189 -220 l 189 49 b 224 17 279 -12 341 -12 b 460 -12 568 99 568 265 b 568 434 459 532 339 532 b 252 532 194 477 174 447 b 159 495 121 520 59 520 z m 476 262 b 476 146 414 68 323 68 b 269 68 223 94 189 130 l 189 386 b 213 419 262 454 319 454 b 405 454 476 382 476 262 z"},"X":{"x_min":0,"x_max":607,"ha":607,"o":"m 10 49 l 85 -8 l 299 290 l 520 -10 l 597 49 l 359 361 l 577 650 l 503 706 l 302 425 l 99 709 l 20 650 l 245 356 z"},"*":{"x_min":0,"x_max":450,"ha":450,"o":"m 81 663 l 57 587 l 174 557 l 98 465 l 161 418 l 227 522 l 291 419 l 355 465 l 278 559 l 394 588 l 371 663 l 257 619 l 266 740 l 186 740 l 195 617 z"},"Y":{"x_min":0,"x_max":599,"ha":599,"o":"m 90 709 l 10 661 l 253 266 l 253 0 l 348 0 l 348 266 l 589 661 l 514 705 l 304 354 z"},"c":{"x_min":0,"x_max":472,"ha":472,"o":"m 439 501 b 398 521 356 532 297 532 b 142 532 45 410 45 260 b 45 100 141 -12 290 -12 b 355 -12 405 2 447 25 l 419 101 b 378 79 346 68 296 68 b 201 68 137 154 137 262 b 137 381 208 452 302 452 b 343 452 374 444 412 425 z"},"!":{"x_min":0,"x_max":314,"ha":314,"o":"m 106 480 l 119 207 l 193 207 l 206 480 l 206 729 l 106 729 z m 90 55 b 90 19 121 -12 157 -12 b 196 -12 224 15 224 55 b 224 91 192 122 157 122 b 115 122 90 96 90 55 z"},"/":{"x_min":0,"x_max":450,"ha":450,"o":"m 121 -71 l 403 748 l 329 773 l 47 -46 z"},"[":{"x_min":0,"x_max":300,"ha":300,"o":"m 80 -100 l 255 -100 l 255 -25 l 160 -25 l 160 665 l 255 665 l 255 740 l 80 740 z"},"6":{"x_min":0,"x_max":600,"ha":600,"o":"m 430 620 b 442 620 456 619 467 618 l 467 700 b 456 701 441 702 429 702 b 192 702 70 511 70 284 b 70 81 177 -12 304 -12 b 436 -12 531 87 531 234 b 531 361 447 443 336 443 b 261 443 201 407 164 371 b 185 525 284 620 430 620 z m 313 368 b 390 368 441 309 441 223 b 441 136 388 70 308 70 b 227 70 164 144 162 269 l 162 291 b 202 338 255 368 313 368 z"},"r":{"x_min":0,"x_max":399,"ha":399,"o":"m 389 526 b 375 530 354 532 334 532 b 245 532 192 472 167 407 l 167 520 l 80 520 l 80 0 l 170 0 l 170 243 b 170 379 243 441 317 441 b 334 441 350 438 362 433 z"},"2":{"x_min":0,"x_max":600,"ha":600,"o":"m 494 0 l 494 82 l 186 82 b 208 259 495 348 495 541 b 495 637 417 712 299 712 b 214 712 151 680 98 632 l 148 571 b 188 608 233 632 289 632 b 354 632 400 591 400 535 b 400 385 85 295 85 37 b 85 24 86 12 88 0 z"},"{":{"x_min":0,"x_max":300,"ha":300,"o":"m 7 288 b 83 278 103 241 103 118 b 103 -47 164 -106 293 -118 l 293 -61 b 218 -43 190 -8 190 114 b 190 263 160 300 76 320 b 160 340 190 377 190 526 b 190 648 218 683 293 701 l 293 758 b 164 746 103 687 103 522 b 103 399 83 362 7 352 z"},"9":{"x_min":0,"x_max":600,"ha":600,"o":"m 76 66 b 126 17 187 -12 264 -12 b 407 -12 515 100 515 366 b 515 540 490 604 442 654 b 409 688 360 712 291 712 b 156 712 65 610 65 484 b 65 344 166 270 272 270 b 331 270 382 298 423 336 b 423 149 351 70 269 70 b 218 70 175 91 135 133 z m 287 344 b 215 344 152 398 152 488 b 152 575 212 632 288 632 b 370 632 423 565 423 439 l 423 409 b 387 373 337 344 287 344 z"}," ":{"x_min":0,"x_max":300,"ha":300,"o":""},"I":{"x_min":0,"x_max":275,"ha":275,"o":"m 185 0 l 185 700 l 90 700 l 90 0 z"},"H":{"x_min":0,"x_max":715,"ha":715,"o":"m 530 0 l 625 0 l 625 700 l 530 700 l 530 401 l 185 401 l 185 700 l 90 700 l 90 0 l 185 0 l 185 319 l 530 319 z"},"4":{"x_min":0,"x_max":600,"ha":600,"o":"m 536 149 l 536 231 l 453 231 l 453 430 l 363 430 l 363 231 l 162 231 l 351 674 l 273 707 l 64 221 l 64 149 l 363 149 l 363 0 l 453 0 l 453 149 z"},"~":{"x_min":0,"x_max":600,"ha":600,"o":"m 524 322 l 488 388 b 461 361 428 333 381 333 b 324 333 279 391 206 391 b 154 391 104 355 76 327 l 111 264 b 133 284 168 311 208 311 b 267 311 316 253 385 253 b 438 253 485 285 524 322 z"},"D":{"x_min":0,"x_max":682,"ha":682,"o":"m 90 2 b 146 -4 198 -8 274 -8 b 524 -8 632 156 632 351 b 632 547 524 708 285 708 b 208 708 152 704 90 698 z m 282 626 b 456 626 535 495 535 351 b 535 189 457 75 277 75 b 244 75 213 76 185 80 l 185 621 b 212 624 243 626 282 626 z"},"^":{"x_min":0,"x_max":600,"ha":600,"o":"m 301 657 l 449 510 l 506 572 l 322 740 l 280 740 l 94 572 l 150 510 z"},"0":{"x_min":0,"x_max":600,"ha":600,"o":"m 301 712 b 146 712 60 582 60 351 b 60 121 143 -12 299 -12 b 454 -12 540 118 540 349 b 540 579 457 712 301 712 z m 300 630 b 391 630 445 532 445 348 b 445 141 389 70 300 70 b 209 70 155 168 155 352 b 155 559 211 630 300 630 z"},"F":{"x_min":0,"x_max":535,"ha":535,"o":"m 90 0 l 185 0 l 185 326 l 452 326 l 452 404 l 185 404 l 185 618 l 505 618 l 505 700 l 90 700 z"},"`":{"x_min":0,"x_max":311,"ha":311,"o":"m 271 636 l 82 761 l 40 677 l 240 575 z"},"k":{"x_min":0,"x_max":511,"ha":511,"o":"m 80 0 l 170 0 l 170 267 l 439 -10 l 501 50 l 256 295 l 457 473 l 405 530 l 170 317 l 170 740 l 80 740 z"},"u":{"x_min":0,"x_max":604,"ha":604,"o":"m 564 65 b 534 65 505 77 505 135 l 505 520 l 415 520 l 415 129 b 375 92 322 68 267 68 b 200 68 165 113 165 194 l 165 520 l 75 520 l 75 182 b 75 40 160 -12 250 -12 b 321 -12 383 21 430 69 b 444 21 481 -5 545 -5 z"},"]":{"x_min":0,"x_max":300,"ha":300,"o":"m 220 -100 l 220 740 l 45 740 l 45 665 l 140 665 l 140 -25 l 45 -25 l 45 -100 z"},"U":{"x_min":0,"x_max":670,"ha":670,"o":"m 503 281 b 503 144 447 71 334 71 b 224 71 170 147 170 281 l 170 700 l 75 700 l 75 266 b 75 87 172 -12 334 -12 b 491 -12 595 93 595 270 l 595 700 l 503 700 z"},"o":{"x_min":0,"x_max":598,"ha":598,"o":"m 466 260 b 466 146 404 68 299 68 b 204 68 132 157 132 262 b 132 376 194 452 299 452 b 394 452 466 364 466 260 z m 40 260 b 40 99 150 -12 299 -12 b 447 -12 558 96 558 262 b 558 427 444 532 299 532 b 152 532 40 428 40 260 z"},"N":{"x_min":0,"x_max":705,"ha":705,"o":"m 491 0 l 615 0 l 615 700 l 525 700 l 525 118 l 216 700 l 90 700 l 90 0 l 180 0 l 180 578 z"},"+":{"x_min":0,"x_max":600,"ha":600,"o":"m 495 304 l 495 382 l 343 382 l 343 545 l 258 545 l 258 382 l 105 382 l 105 304 l 258 304 l 258 141 l 343 141 l 343 304 z"},"G":{"x_min":0,"x_max":674,"ha":674,"o":"m 374 296 l 519 296 l 519 143 b 485 109 425 71 351 71 b 230 71 147 171 147 338 b 147 526 239 629 365 629 b 436 629 491 607 547 576 l 582 655 b 522 688 457 712 370 712 b 168 712 50 555 50 332 b 50 121 167 -12 329 -12 b 410 -12 478 29 525 70 l 525 0 l 609 0 l 609 371 l 374 371 z"},"q":{"x_min":0,"x_max":594,"ha":594,"o":"m 432 520 l 432 478 b 396 508 347 532 287 532 b 155 532 45 422 45 258 b 45 83 157 -12 278 -12 b 345 -12 396 23 424 53 l 424 -220 l 514 -220 l 514 520 z m 296 454 b 344 454 388 437 424 412 l 424 131 b 397 98 351 68 298 68 b 213 68 137 140 137 261 b 137 383 210 454 296 454 z"},"d":{"x_min":0,"x_max":613,"ha":613,"o":"m 277 -12 b 357 -12 408 29 438 71 b 452 21 490 -5 554 -5 l 573 65 b 544 65 514 75 514 126 l 514 740 l 424 740 l 424 468 b 396 497 345 532 276 532 b 150 532 45 415 45 257 b 45 93 148 -12 277 -12 z m 297 68 b 206 68 137 149 137 260 b 137 369 199 454 296 454 b 351 454 399 421 424 389 l 424 131 b 393 94 346 68 297 68 z"},"1":{"x_min":0,"x_max":600,"ha":600,"o":"m 311 700 l 104 551 l 153 484 l 287 585 l 287 80 l 144 80 l 144 0 l 496 0 l 496 80 l 377 80 l 377 700 z"},"5":{"x_min":0,"x_max":600,"ha":600,"o":"m 515 217 b 515 341 422 429 267 429 l 217 429 l 217 619 l 478 619 l 478 700 l 132 700 l 132 348 l 256 348 b 361 348 420 290 420 207 b 420 127 360 70 271 70 b 214 70 169 90 132 117 l 85 40 b 133 7 188 -12 270 -12 b 417 -12 515 83 515 217 z"}}}
